<svg width="38" height="22" viewBox="0 0 38 22" fill="none" xmlns="http://www.w3.org/2000/svg">
<mask id="path-1-inside-1_50_1139" fill="white">
<path d="M9.79229 21.7921H0.000289083L9.21629 0.000106812H15.4563L9.79229 21.7921ZM27.4323 0.000106812H37.1283L27.9123 21.7921H21.7683L27.4323 0.000106812Z"/>
</mask>
<path d="M9.79229 21.7921H0.000289083L9.21629 0.000106812H15.4563L9.79229 21.7921ZM27.4323 0.000106812H37.1283L27.9123 21.7921H21.7683L27.4323 0.000106812Z" fill="black"/>
<path d="M9.79229 21.7921V22.7921H10.5656L10.7601 22.0437L9.79229 21.7921ZM0.000289083 21.7921L-0.920734 21.4026L-1.50837 22.7921H0.000289083V21.7921ZM9.21629 0.000106812V-0.999893H8.55345L8.29527 -0.389401L9.21629 0.000106812ZM15.4563 0.000106812L16.4241 0.251661L16.7494 -0.999893H15.4563V0.000106812ZM9.79229 21.7921V20.7921H0.000289083V21.7921V22.7921H9.79229V21.7921ZM0.000289083 21.7921L0.921312 22.1816L10.1373 0.389614L9.21629 0.000106812L8.29527 -0.389401L-0.920734 21.4026L0.000289083 21.7921ZM9.21629 0.000106812V1.00011H15.4563V0.000106812V-0.999893H9.21629V0.000106812ZM15.4563 0.000106812L14.4884 -0.251447L8.82445 21.5406L9.79229 21.7921L10.7601 22.0437L16.4241 0.251661L15.4563 0.000106812ZM27.4323 0.000106812V-0.999893H26.659L26.4644 -0.251447L27.4323 0.000106812ZM37.1283 0.000106812L38.0493 0.389614L38.6369 -0.999893H37.1283V0.000106812ZM27.9123 21.7921V22.7921H28.5751L28.8333 22.1816L27.9123 21.7921ZM21.7683 21.7921L20.8004 21.5406L20.4752 22.7921H21.7683V21.7921ZM27.4323 0.000106812V1.00011H37.1283V0.000106812V-0.999893H27.4323V0.000106812ZM37.1283 0.000106812L36.2073 -0.389401L26.9913 21.4026L27.9123 21.7921L28.8333 22.1816L38.0493 0.389614L37.1283 0.000106812ZM27.9123 21.7921V20.7921H21.7683V21.7921V22.7921H27.9123V21.7921ZM21.7683 21.7921L22.7361 22.0437L28.4001 0.251661L27.4323 0.000106812L26.4644 -0.251447L20.8004 21.5406L21.7683 21.7921Z" fill="black" mask="url(#path-1-inside-1_50_1139)"/>
</svg>
