<?xml version="1.0" encoding="UTF-8"?>
<svg id="Layer_1" data-name="Layer 1" xmlns="http://www.w3.org/2000/svg" viewBox="0 0 960 960">
  <defs>
    <style>
      .cls-1 {
        fill: #030000;
        stroke-width: 0px;
      }
    </style>
  </defs>
  <circle class="cls-1" cx="739.04" cy="428.4" r="8.95"/>
  <path class="cls-1" d="M299.43,425.31h-22.39v24.27h-13.43v14.64h13.43v47.82c-.14,3.4.55,6.78,2.01,9.85,1.25,2.42,3.18,4.43,5.55,5.78,2.52,1.42,5.28,2.35,8.15,2.73,3.23.49,6.49.72,9.76.72h6.72c2.1-.1,4.19-.3,6.27-.63v-17.01c-1.08.22-2.17.36-3.27.45h-3.58c-2.65.31-5.33-.36-7.52-1.88-1.52-2.19-2.19-4.87-1.88-7.52v-40.29h16.25v-14.64h-16.07v-24.27Z"/>
  <path class="cls-1" d="M387.4,462.07c-3.29-4.49-7.58-8.16-12.54-10.7-5.56-2.77-11.7-4.13-17.91-3.98-5.82-.04-11.58,1.11-16.92,3.4-9.96,4.17-17.76,12.27-21.54,22.39-2.01,5.41-3,11.15-2.91,16.92-.05,5.87.94,11.71,2.91,17.24,1.8,4.99,4.6,9.56,8.24,13.43,3.64,3.82,8.07,6.78,12.98,8.69,5.5,2.1,11.35,3.13,17.24,3.04,8.22.22,16.32-1.96,23.33-6.27,7.1-5.03,12.21-12.4,14.42-20.82h-19.57c-1.11,2.99-3.21,5.5-5.95,7.12-8.12,4.97-18.47,4.38-25.97-1.48-3.67-4.31-5.57-9.84-5.33-15.49h58.2c.42-6.01-.11-12.06-1.57-17.91-1.31-5.61-3.73-10.91-7.12-15.58ZM337.62,481.45c.14-1.81.49-3.6,1.03-5.33,1.31-4.43,4.43-8.11,8.6-10.12,2.8-1.3,5.87-1.92,8.95-1.79,4.5-.32,8.92,1.31,12.13,4.48,2.95,3.68,4.84,8.09,5.46,12.76h-36.18Z"/>
  <path class="cls-1" d="M473.36,462.07c-3.31-4.43-7.6-8.05-12.54-10.57-5.56-2.77-11.7-4.13-17.91-3.98-5.78-.09-11.51,1.03-16.83,3.27-9.88,4.22-17.58,12.31-21.31,22.39-1.96,5.42-2.92,11.16-2.82,16.92-.12,5.86.8,11.7,2.73,17.24,1.8,4.99,4.6,9.56,8.24,13.43,3.64,3.82,8.07,6.78,12.98,8.69,5.5,2.1,11.35,3.13,17.24,3.04,8.26.24,16.42-1.94,23.46-6.27,7.05-5.05,12.11-12.42,14.28-20.82h-19.65c-1.11,2.99-3.21,5.5-5.95,7.12-8.12,4.97-18.47,4.38-25.97-1.48-3.62-4.32-5.48-9.86-5.19-15.49h58.2c.33-6.03-.29-12.07-1.84-17.91-1.31-5.61-3.73-10.91-7.12-15.58ZM423.71,481.45c.14-1.81.49-3.6,1.03-5.33,1.31-4.43,4.43-8.11,8.6-10.12,2.8-1.3,5.87-1.92,8.95-1.79,4.5-.32,8.92,1.31,12.13,4.48,2.96,3.67,4.87,8.08,5.51,12.76h-36.22Z"/>
  <rect class="cls-1" x="487.6" y="424.86" width="22.39" height="105.62"/>
  <path class="cls-1" d="M659.97,462.07c-3.37-4.4-7.66-8.01-12.58-10.57-5.33-2.78-11.27-4.2-17.28-4.12-10.95-.21-21.42,4.46-28.56,12.76-3.44,3.94-6.1,8.5-7.84,13.43-1.84,5.25-2.77,10.78-2.73,16.34-.06,5.85.82,11.67,2.6,17.24,1.58,4.96,4.19,9.54,7.66,13.43,3.44,3.86,7.69,6.92,12.45,8.95,5.37,2.17,11.13,3.24,16.92,3.13,4.26.01,8.5-.59,12.58-1.79,3.9-1.16,7.57-2.96,10.88-5.33,6.71-4.88,11.37-12.07,13.07-20.19h-16.92c-1.21,3.92-3.62,7.37-6.89,9.85-3.74,2.41-8.14,3.58-12.58,3.36-3.35.09-6.67-.58-9.72-1.97-2.6-1.22-4.9-3.01-6.72-5.24-1.8-2.27-3.16-4.87-3.98-7.66-.89-2.9-1.35-5.92-1.34-8.95h59.46c.76-5.89.36-11.86-1.16-17.6-1.42-5.46-3.9-10.59-7.3-15.09ZM608.84,482.66c.15-2.84.8-5.63,1.93-8.24,1.08-2.52,2.59-4.82,4.48-6.81,1.87-1.92,4.11-3.44,6.58-4.48,2.62-1.12,5.44-1.7,8.28-1.7,2.85-.04,5.67.57,8.24,1.79,2.36,1.07,4.49,2.59,6.27,4.48,1.75,2.01,3.13,4.31,4.07,6.81,1,2.61,1.6,5.36,1.79,8.15h-41.64Z"/>
  <rect class="cls-1" x="729.99" y="449.58" width="17.91" height="80.9"/>
  <path class="cls-1" d="M579.38,489.65c-2.56-1.82-5.38-3.24-8.37-4.21-3.12-1.07-6.31-1.95-9.54-2.64l-9.72-2.01c-2.85-.53-5.65-1.3-8.37-2.28-2.18-.73-4.2-1.87-5.95-3.36-1.52-1.34-2.36-3.3-2.28-5.33-.13-1.65.44-3.27,1.57-4.48,1.09-1.07,2.4-1.88,3.85-2.37,1.56-.59,3.18-.98,4.84-1.16,1.48-.19,2.98-.3,4.48-.31,3.64-.08,7.26.67,10.57,2.19,3.27,1.7,5.47,4.93,5.87,8.6h18.62c-.45-4.1-1.84-8.04-4.07-11.51-1.97-3.1-4.58-5.74-7.66-7.75-3.17-2.06-6.67-3.58-10.34-4.48-3.92-.89-7.93-1.34-11.95-1.34-3.86,0-7.71.36-11.51,1.07-3.84.67-7.55,1.97-10.97,3.85-3.23,1.75-6.01,4.22-8.15,7.21-2.24,3.23-3.37,7.09-3.22,11.01-.13,3.55.62,7.07,2.19,10.25,1.4,2.69,3.41,5.02,5.87,6.81,2.54,1.8,5.33,3.21,8.28,4.21,3.16,1.06,6.37,1.94,9.63,2.64l9.54,2.01c2.85.53,5.65,1.3,8.37,2.28,2.23.76,4.29,1.96,6.04,3.54,1.56,1.47,2.46,3.5,2.51,5.64.19,2-.41,3.99-1.66,5.55-1.2,1.44-2.74,2.54-4.48,3.22-1.94.76-3.97,1.26-6.04,1.48-1.9.27-3.81.4-5.73.4-4.33.12-8.61-.97-12.36-3.13-3.43-2.25-5.6-5.98-5.87-10.07h-17.91c.1,4.03,1.07,7.99,2.87,11.6,1.78,3.53,4.36,6.59,7.52,8.95,3.39,2.45,7.22,4.23,11.28,5.24,4.62,1.17,9.38,1.74,14.15,1.7,4.26,0,8.51-.46,12.67-1.39,4.09-.86,8.02-2.37,11.64-4.48,3.45-2.01,6.37-4.8,8.55-8.15,2.27-3.66,3.41-7.92,3.27-12.22.18-3.48-.53-6.94-2.06-10.07-1.47-2.64-3.51-4.94-5.95-6.72Z"/>
  <path class="cls-1" d="M823.65,461.93c-3.37-4.4-7.66-8.01-12.58-10.57-5.3-2.72-11.19-4.09-17.15-3.98-10.95-.21-21.42,4.46-28.56,12.76-3.44,3.94-6.1,8.5-7.84,13.43-1.84,5.25-2.77,10.78-2.73,16.34-.06,5.85.82,11.67,2.6,17.24,1.58,4.96,4.19,9.54,7.66,13.43,3.44,3.86,7.69,6.92,12.45,8.95,5.37,2.17,11.13,3.24,16.92,3.13,4.26.01,8.5-.59,12.58-1.79,3.9-1.16,7.57-2.96,10.88-5.33,6.71-4.88,11.37-12.07,13.07-20.19h-16.92c-1.25,3.94-3.71,7.38-7.03,9.85-3.74,2.41-8.14,3.58-12.58,3.36-3.35.09-6.67-.58-9.72-1.97-2.6-1.22-4.9-3.01-6.72-5.24-1.8-2.27-3.16-4.87-3.98-7.66-.89-2.9-1.35-5.92-1.34-8.95h59.46c.78-5.99.39-12.07-1.16-17.91-1.44-5.4-3.92-10.46-7.3-14.91ZM772.88,482.71h0c.08-2.91.68-5.77,1.79-8.46,1.08-2.52,2.59-4.82,4.48-6.81,1.87-1.92,4.11-3.44,6.58-4.48,2.72-1.07,5.63-1.57,8.55-1.48,2.85-.04,5.67.57,8.24,1.79,2.36,1.07,4.49,2.59,6.27,4.48,1.75,2.01,3.13,4.31,4.07,6.81,1,2.61,1.6,5.36,1.79,8.15h-41.77Z"/>
  <path class="cls-1" d="M905.81,496.36c-1.47-2.64-3.51-4.94-5.95-6.72-2.56-1.82-5.38-3.24-8.37-4.21-3.12-1.07-6.31-1.95-9.54-2.64l-9.72-2.01c-2.85-.53-5.65-1.3-8.37-2.28-2.18-.73-4.2-1.87-5.95-3.36-1.52-1.34-2.36-3.3-2.28-5.33-.13-1.65.44-3.27,1.57-4.48,1.07-1.12,2.39-1.98,3.85-2.51,1.57-.59,3.21-.98,4.88-1.16,1.48-.19,2.98-.3,4.48-.31,3.64-.08,7.26.67,10.57,2.19,3.27,1.7,5.47,4.93,5.87,8.6h18.62c-.35-4.07-1.62-8-3.72-11.51-1.97-3.1-4.58-5.74-7.66-7.75-3.17-2.06-6.67-3.58-10.34-4.48-3.92-.89-7.93-1.34-11.95-1.34-3.86,0-7.71.36-11.51,1.07-3.84.67-7.55,1.97-10.97,3.85-3.23,1.75-6.01,4.22-8.15,7.21-2.24,3.23-3.37,7.09-3.22,11.01-.13,3.55.62,7.07,2.19,10.25,1.4,2.69,3.41,5.02,5.87,6.81,2.54,1.8,5.33,3.21,8.28,4.21,3.16,1.06,6.37,1.94,9.63,2.64l9.54,2.01c2.85.53,5.65,1.3,8.37,2.28,2.23.76,4.29,1.96,6.04,3.54,1.56,1.47,2.46,3.5,2.51,5.64.19,2-.41,3.99-1.66,5.55-1.2,1.44-2.74,2.54-4.48,3.22-1.94.76-3.97,1.26-6.04,1.48-1.9.27-3.81.4-5.73.4-4.33.12-8.61-.97-12.36-3.13-3.39-2.16-5.6-5.76-6-9.76h-17.91c.1,4.03,1.07,7.99,2.87,11.6,1.78,3.53,4.36,6.59,7.52,8.95,3.32,2.51,7.09,4.36,11.1,5.46,4.62,1.17,9.38,1.74,14.15,1.7,4.26,0,8.51-.46,12.67-1.39,4.09-.86,8.02-2.37,11.64-4.48,3.45-2.01,6.37-4.8,8.55-8.15,2.27-3.66,3.41-7.92,3.27-12.22.23-3.62-.51-7.24-2.15-10.48Z"/>
  <path class="cls-1" d="M255.64,488.66c-2.52-1.79-5.3-3.19-8.24-4.16-3.09-1.03-6.27-1.93-9.45-2.64l-9.22-2.01c-2.73-.54-5.42-1.25-8.06-2.1-2.09-.62-4.04-1.66-5.73-3.04-1.43-1.19-2.24-2.97-2.19-4.84-.09-1.44.36-2.86,1.25-3.98.82-.99,1.86-1.78,3.04-2.28,1.32-.56,2.73-.91,4.16-1.03,1.34,0,2.73-.22,4.07-.22,3.58-.08,7.13.71,10.34,2.28,2.87,1.6,4.69,4.59,4.79,7.88h21.09c-.31-4.16-1.61-8.18-3.81-11.73-2.05-3.22-4.81-5.93-8.06-7.92-3.39-2.04-7.12-3.47-11.01-4.21-4.26-.85-8.59-1.27-12.94-1.25-4.31-.01-8.61.38-12.85,1.16-3.96.71-7.78,2.09-11.28,4.07-3.31,1.92-6.08,4.65-8.06,7.92-2.12,3.86-3.16,8.22-3,12.63-.09,3.13.67,6.22,2.19,8.95,1.44,2.44,3.42,4.52,5.78,6.09,2.54,1.69,5.32,3.01,8.24,3.9,3,.98,6.13,1.84,9.45,2.6,6.28,1.33,12.46,3.11,18.49,5.33,3.67.72,6.4,3.8,6.67,7.52.09,1.75-.4,3.48-1.39,4.92-.93,1.29-2.14,2.36-3.54,3.13-1.41.77-2.91,1.34-4.48,1.7-1.62.36-3.27.54-4.92.54-2.14.02-4.28-.24-6.36-.76-1.93-.49-3.76-1.31-5.42-2.42-1.57-1.11-2.88-2.55-3.85-4.21-.85-1.54-1.34-3.26-1.43-5.01h-21.22c.23,8.63,4.81,16.55,12.18,21.04,3.68,2.2,7.73,3.71,11.95,4.48,8.98,1.82,18.24,1.82,27.22,0,4.18-.76,8.18-2.28,11.82-4.48,7.61-4.66,12.1-13.07,11.73-21.98.11-3.28-.61-6.53-2.1-9.45-1.47-2.53-3.47-4.72-5.87-6.4Z"/>
  <path class="cls-1" d="M691.53,459.38h-.54v-9.63h-16.74v80.9h17.91v-46.29c0-14.55,13.03-18.71,29.46-18.71v-16.03h0c-7.92,0-19.57-.58-30.09,9.76Z"/>
  <path class="cls-1" d="M130.41,441.43v-13.03c0-4.95-4.01-8.95-8.95-8.95s-8.95,4.01-8.95,8.95v13.03c-20.15,3.76-35.91,19.52-39.67,39.67h-12.8c-4.95,0-8.95,4.01-8.95,8.95s4.01,8.95,8.95,8.95h12.58c4.88,26.93,30.68,44.81,57.61,39.92,26.93-4.88,44.81-30.68,39.92-57.61-3.67-20.26-19.49-36.13-39.73-39.89ZM121.46,521.61c-17.31,0-31.34-14.03-31.34-31.34s14.03-31.34,31.34-31.34,31.34,14.03,31.34,31.34-14.03,31.34-31.34,31.34Z"/>
  <path class="cls-1" d="M121.24,470.75h0c-10.76-.05-19.52,8.63-19.56,19.39s8.63,19.52,19.39,19.56,19.52-8.63,19.56-19.39c0-.03,0-.06,0-.09,0-10.74-8.69-19.45-19.43-19.48h.04ZM121.01,496.05c-3.21,0-5.82-2.61-5.82-5.82,0-3.21,2.61-5.82,5.82-5.82,3.21,0,5.82,2.61,5.82,5.82-.02,3.2-2.62,5.8-5.82,5.82Z"/>
  <circle class="cls-1" cx="74.54" cy="444.47" r="8.95"/>
</svg>